<svg xmlns="http://www.w3.org./2000/svg">
    <symbol id="medal-logo" width="85" height="18" viewBox="0 0 85 18" fill="none" xmlns="http://www.w3.org/2000/svg">
        <path d="M0.125 0.545454H6.02273L10.0795 10.4318H10.2841L14.3409 0.545454H20.2386V18H15.6023V7.90909H15.4659L11.5795 17.8636H8.78409L4.89773 7.84091H4.76136V18H0.125V0.545454ZM22.4844 18V0.545454H35.0639V4.36364H27.223V7.36364H34.4162V11.1818H27.223V14.1818H35.0298V18H22.4844ZM44.13 18H37.4141V0.545454H44.0618C45.8572 0.545454 47.4084 0.894886 48.7152 1.59375C50.0277 2.28693 51.0391 3.28693 51.7493 4.59375C52.4652 5.89489 52.8232 7.45455 52.8232 9.27273C52.8232 11.0909 52.468 12.6534 51.7578 13.9602C51.0476 15.2614 50.0419 16.2614 48.7408 16.9602C47.4396 17.6534 45.9027 18 44.13 18ZM42.1527 13.9773H43.9595C44.8232 13.9773 45.5589 13.8381 46.1669 13.5597C46.7805 13.2812 47.2464 12.8011 47.5646 12.1193C47.8885 11.4375 48.0504 10.4886 48.0504 9.27273C48.0504 8.05682 47.8857 7.10795 47.5561 6.42614C47.2322 5.74432 46.755 5.2642 46.1243 4.98579C45.4993 4.70739 44.7322 4.56818 43.8232 4.56818H42.1527V13.9773ZM58.4482 18H53.3345L59.0959 0.545454H65.5732L71.3345 18H66.2209L62.4027 5.35227H62.2663L58.4482 18ZM57.4936 11.1136H67.1072V14.6591H57.4936V11.1136ZM73.0156 18V0.545454H77.7543V14.1818H84.8111V18H73.0156Z" fill="black"/>
    </symbol>

    <symbol id="bags" width="26" height="26" viewBox="0 0 26 26" fill="none" xmlns="http://www.w3.org/2000/svg">
        <path d="M1.2339 10.4233C0.951334 9.46253 1.67154 8.5 2.67295 8.5H23.4748C24.4421 8.5 25.1565 9.402 24.9349 10.3436L21.8761 23.3436C21.7167 24.0211 21.112 24.5 20.416 24.5H6.49648C5.83106 24.5 5.24518 24.0616 5.05743 23.4232L1.2339 10.4233Z" stroke="#515151"/>
        <path d="M9 12V6C9 3.79086 10.7909 2 13 2V2C15.2091 2 17 3.79086 17 6V12" stroke="#515151" stroke-linecap="round"/>
    </symbol>


    <symbol id="search" width="26" height="26" viewBox="0 0 26 26" fill="none" xmlns="http://www.w3.org/2000/svg">
        <circle cx="11" cy="10" r="8.5" stroke="#515151"/>
        <line x1="16.7071" y1="17" x2="24" y2="24.2929" stroke="#515151" stroke-linecap="round"/>
    </symbol>

    <symbol  id="sign" width="26" height="26" viewBox="0 0 26 26" fill="none" xmlns="http://www.w3.org/2000/svg">
        <circle cx="13" cy="7" r="5.5" stroke="#515151"/>
        <line x1="1.5" y1="24.5" x2="24.5" y2="24.5" stroke="#515151" stroke-linecap="round"/>
        <path d="M1.5 24.5L2.41859 22.7826C6.94026 14.3291 19.0597 14.3291 23.5814 22.7826L24.5 24.5" stroke="#515151" stroke-linecap="round"/>
    </symbol>

    <symbol id="dropdown" width="8" height="8" viewBox="0 0 8 8" fill="none" xmlns="http://www.w3.org/2000/svg">
        <path d="M7 3L4 6" stroke="#515151" stroke-linecap="round"/>
        <path d="M1 3L4 6" stroke="#515151" stroke-linecap="round"/>
    </symbol>

    
    <symbol id="btn-next-prev" width="20" height="20" viewBox="0 0 20 20" fill="none" xmlns="http://www.w3.org/2000/svg">
        <circle cx="10" cy="10" r="9.5" transform="rotate(-180 10 10)" stroke="#BFBFBF"/>
        <path d="M8.5 6.29289L12 9.79285L8.5 13.2928" stroke="#515151" stroke-linecap="round"/>
    </symbol>

    <symbol id="inst" width="15" height="15" viewBox="0 0 15 15" fill="none" xmlns="http://www.w3.org/2000/svg">
        <g clip-path="url(#clip0_308_167)">
        <path d="M7.5 5C6.83696 5 6.20107 5.26339 5.73223 5.73223C5.26339 6.20107 5 6.83696 5 7.5C5 8.16304 5.26339 8.79893 5.73223 9.26777C6.20107 9.73661 6.83696 10 7.5 10C8.16304 10 8.79893 9.73661 9.26777 9.26777C9.73661 8.79893 10 8.16304 10 7.5C10 6.83696 9.73661 6.20107 9.26777 5.73223C8.79893 5.26339 8.16304 5 7.5 5Z" fill="black"/>
        <path fill-rule="evenodd" clip-rule="evenodd" d="M4.5 0C3.30653 0 2.16193 0.474106 1.31802 1.31802C0.474106 2.16193 0 3.30653 0 4.5L0 10.5C0 11.6935 0.474106 12.8381 1.31802 13.682C2.16193 14.5259 3.30653 15 4.5 15H10.5C11.6935 15 12.8381 14.5259 13.682 13.682C14.5259 12.8381 15 11.6935 15 10.5V4.5C15 3.30653 14.5259 2.16193 13.682 1.31802C12.8381 0.474106 11.6935 0 10.5 0L4.5 0ZM4 7.5C4 6.57174 4.36875 5.6815 5.02513 5.02513C5.6815 4.36875 6.57174 4 7.5 4C8.42826 4 9.3185 4.36875 9.97487 5.02513C10.6313 5.6815 11 6.57174 11 7.5C11 8.42826 10.6313 9.3185 9.97487 9.97487C9.3185 10.6313 8.42826 11 7.5 11C6.57174 11 5.6815 10.6313 5.02513 9.97487C4.36875 9.3185 4 8.42826 4 7.5ZM11 4H12V3H11V4Z" fill="black"/>
        </g>
        <defs>
        <clipPath id="clip0_308_167">
        <rect width="15" height="15" fill="white"/>
        </clipPath>
        </defs>
    </symbol>

    <svg id="vk" width="15" height="15" viewBox="0 0 15 15" fill="none" xmlns="http://www.w3.org/2000/svg">
        <g clip-path="url(#clip0_207_24)">
        <path d="M9.80201 0H5.19748C0.995606 0 -0.000488281 0.996094 -0.000488281 5.19797V9.8025C-0.000488281 14.0044 0.995606 15.0005 5.19748 15.0005H9.80201C14.0039 15.0005 15 14.0044 15 9.8025V5.19797C15 0.996094 13.994 0 9.80201 0ZM12.1092 10.7006H11.0203C10.6078 10.7006 10.4808 10.3734 9.73873 9.62156C9.0942 8.99672 8.80873 8.91375 8.64982 8.91375C8.42529 8.91375 8.36154 8.97703 8.36154 9.285V10.2689C8.36154 10.5328 8.27857 10.6912 7.58014 10.6912C6.42514 10.6912 5.14357 9.99281 4.24498 8.69156C2.88982 6.78469 2.51904 5.35641 2.51904 5.06109C2.51904 4.90219 2.58232 4.75359 2.88748 4.75359H3.97873C4.25482 4.75359 4.35982 4.88062 4.46717 5.17594C5.0067 6.73359 5.90529 8.09812 6.27607 8.09812C6.41295 8.09812 6.47623 8.03484 6.47623 7.68563V6.07687C6.43451 5.33484 6.04404 5.27109 6.04404 5.00766C6.04404 4.88062 6.14904 4.75359 6.31732 4.75359H8.03342C8.26545 4.75359 8.35076 4.88062 8.35076 5.15391V7.32422C8.35076 7.55859 8.45576 7.64156 8.51904 7.64156C8.65592 7.64156 8.77311 7.55859 9.0267 7.30453C9.81045 6.42562 10.372 5.07047 10.372 5.07047C10.4451 4.91156 10.5722 4.76297 10.8483 4.76297H11.9395C12.2667 4.76297 12.3398 4.93125 12.2667 5.16563C12.1298 5.80031 10.7944 7.68516 10.7944 7.68516C10.6795 7.87547 10.6354 7.95844 10.7944 8.17078C10.9115 8.32969 11.2926 8.65922 11.5462 8.95453C12.0126 9.48422 12.3712 9.92859 12.4669 10.2361C12.5742 10.5413 12.4158 10.7002 12.1078 10.7002L12.1092 10.7006Z" fill="black"/>
        </g>
        <defs>
        <clipPath id="clip0_207_24">
        <rect width="15" height="15" fill="white"/>
        </clipPath>
        </defs>
    </svg>

    <svg id="fb" width="15" height="15" viewBox="0 0 15 15" fill="none" xmlns="http://www.w3.org/2000/svg">
        <g clip-path="url(#clip0_308_152)">
        <path d="M2.73891 0C1.22167 0 0 1.22167 0 2.73891V12.2611C0 13.7783 1.22167 15 2.73891 15H7.89985V9.13595H6.34923V7.02469H7.89985V5.22094C7.89985 3.80382 8.81604 2.50266 10.9266 2.50266C11.7811 2.50266 12.413 2.5847 12.413 2.5847L12.3633 4.55627C12.3633 4.55627 11.7188 4.55018 11.0156 4.55018C10.2545 4.55018 10.1325 4.90085 10.1325 5.483V7.02471H12.4237L12.3239 9.13596H10.1325V15H12.2611C13.7783 15 15 13.7784 15 12.2611V2.73893C15 1.22169 13.7783 1.5e-05 12.2611 1.5e-05H2.73889L2.73891 0Z" fill="black"/>
        </g>
        <defs>
        <clipPath id="clip0_308_152">
        <rect width="15" height="15" fill="white"/>
        </clipPath>
        </defs>
    </svg>

    <svg id="tg" width="15" height="15" viewBox="0 0 15 15" fill="none" xmlns="http://www.w3.org/2000/svg">
        <g clip-path="url(#clip0_308_156)">
        <path fill-rule="evenodd" clip-rule="evenodd" d="M15 7.5C15 11.6419 11.6419 15 7.5 15C3.35813 15 0 11.6419 0 7.5C0 3.35813 3.35813 0 7.5 0C11.6419 0 15 3.35813 15 7.5ZM7.76875 5.53688C7.03938 5.84 5.58125 6.46812 3.395 7.42063C3.04 7.56187 2.85375 7.7 2.83687 7.835C2.80813 8.06375 3.09437 8.15375 3.48312 8.27563C3.53625 8.2925 3.59125 8.30937 3.6475 8.32812C4.03062 8.4525 4.54563 8.59812 4.81313 8.60375C5.05625 8.60875 5.3275 8.50875 5.62687 8.30375C7.66937 6.92438 8.72375 6.2275 8.79 6.2125C8.83687 6.20187 8.90187 6.18812 8.94563 6.2275C8.98938 6.26625 8.985 6.34 8.98063 6.36C8.95188 6.48062 7.83063 7.52375 7.24937 8.06375C7.06812 8.23188 6.94 8.35125 6.91375 8.37875C6.855 8.43937 6.795 8.4975 6.7375 8.55313C6.38125 8.89563 6.115 9.15312 6.7525 9.57312C7.05875 9.775 7.30375 9.94188 7.54812 10.1081C7.815 10.29 8.08125 10.4712 8.42625 10.6975C8.51375 10.755 8.5975 10.8144 8.67937 10.8725C8.99 11.0944 9.26937 11.2931 9.61438 11.2619C9.81437 11.2431 10.0219 11.055 10.1269 10.4931C10.375 9.16437 10.8637 6.28688 10.9769 5.10063C10.9838 5.00213 10.9796 4.90318 10.9644 4.80562C10.9553 4.72683 10.9169 4.65433 10.8569 4.6025C10.7675 4.52938 10.6287 4.51375 10.5662 4.515C10.2844 4.52 9.85188 4.67063 7.76875 5.53688Z" fill="black"/>
        </g>
        <defs>
        <clipPath id="clip0_308_156">
        <rect width="15" height="15" fill="white"/>
        </clipPath>
        </defs>
    </svg>

    <svg id="mail" width="15" height="15" viewBox="0 0 15 15" fill="none" xmlns="http://www.w3.org/2000/svg">
        <g clip-path="url(#clip0_308_147)">
        <path d="M7.2413 3.29108C8.38646 3.29108 9.46552 3.79874 10.2563 4.59233V4.59468C10.2563 4.21358 10.5127 3.9253 10.8671 3.9253H10.9571C11.5163 3.9253 11.6283 4.45264 11.6283 4.61905L11.6307 10.5417C11.5918 10.9298 12.0315 11.1305 12.2757 10.8811C13.2249 9.90467 14.3626 5.85655 11.6846 3.5128C9.18708 1.32514 5.83505 1.68655 4.05287 2.91468C2.15865 4.22343 0.947865 7.11421 2.12396 9.83108C3.40833 12.7931 7.08005 13.6767 9.26536 12.7955C10.3716 12.3487 10.8816 13.8422 9.73177 14.3311C7.9988 15.0703 3.16927 14.9948 0.913646 11.0887C-0.61026 8.45014 -0.529635 3.80858 3.5138 1.40389C6.60427 -0.436887 10.6819 0.073113 13.1401 2.63952C15.7088 5.32499 15.5602 10.3495 13.0524 12.3028C11.9166 13.1911 10.2301 12.3272 10.2422 11.033L10.2296 10.6111C9.4388 11.3944 8.38646 11.8537 7.2413 11.8537C4.97583 11.8537 2.9813 9.85874 2.9813 7.59561C2.9813 5.30811 4.97583 3.29202 7.2413 3.29202V3.29108ZM10.0908 7.43202C10.0051 5.77405 8.77458 4.77561 7.28771 4.77561H7.23146C5.51771 4.77561 4.56568 6.12561 4.56568 7.65608C4.56568 9.37218 5.71552 10.4559 7.22443 10.4559C8.90865 10.4559 10.0144 9.22358 10.0951 7.76577L10.0908 7.43202Z" fill="black"/>
        </g>
        <defs>
        <clipPath id="clip0_308_147">
        <rect width="15" height="15" fill="white"/>
        </clipPath>
        </defs>
    </svg>


</svg>